<svg fill="none" height="49" viewBox="0 0 49 49" width="49" xmlns="http://www.w3.org/2000/svg"><g stroke="#1c1917" stroke-linecap="round" stroke-linejoin="round" stroke-width="4"><path d="m10.5 12.5c0-2.1217.8429-4.15656 2.3431-5.65685 1.5003-1.5003 3.5352-2.34315 5.6569-2.34315h12c2.1217 0 4.1566.84285 5.6569 2.34315 1.5002 1.50029 2.3431 3.53515 2.3431 5.65685v28c0 1.0609-.4214 2.0783-1.1716 2.8284-.7501.7502-1.7675 1.1716-2.8284 1.1716h-20c-1.0609 0-2.0783-.4214-2.8284-1.1716-.7502-.7501-1.1716-1.7675-1.1716-2.8284z"/><path d="m10.5 20.5h28"/><path d="m30.5 14.5v12"/></g></svg>